<svg xmlns="http://www.w3.org/2000/svg" width="500" height="200" viewBox="0 0 500 200" shape-rendering="auto"><polyline points="0, 52.5370434945845 2.9761904761904763, 122.17118443776351 5.9523809523809526, 170.07687066477519 8.928571428571429, 123.05921878471166 11.904761904761905, 104.13859735465876 14.880952380952381, 142.24582837381897 17.857142857142858, 156.65337387221484 20.833333333333336, 166.93032851581575 23.80952380952381, 162.30504198016968 26.785714285714285, 167.2678565499101 29.76190476190476, 179.5643409646079 32.738095238095234, 135.22098702079248 35.71428571428571, 147.17628490729905 38.69047619047618, 134.86946974117964 41.66666666666666, 160.01311118809835 44.64285714285713, 128.10641185778215 47.619047619047606, 123.47717836190246 50.59523809523808, 135.19413334423038 53.571428571428555, 149.90560874721385 56.54761904761903, 148.97229108623245 59.523809523809504, 163.04615040170182 62.49999999999998, 0 65.47619047619045, 142.90516029683158 68.45238095238093, 139.09921062822846 71.42857142857142, 158.84548209877082 74.4047619047619, 158.96174622461405 77.38095238095238, 154.1725931952417 80.35714285714286, 127.39080732010373 83.33333333333334, 102.33552621117342 86.30952380952382, 120.89721427646279 89.2857142857143, 138.01155752732822 92.26190476190479, 131.34892270686663 95.23809523809527, 159.7131990852055 98.21428571428575, 199.07148142367794 101.19047619047623, 111.63913707679554 104.16666666666671, 128.42278267075113 107.1428571428572, 131.6598401236569 110.11904761904768, 183.50671622863405 113.09523809523816, 151.18948262418587 116.07142857142864, 170.48931565465355 119.04761904761912, 135.95851954404114 122.0238095238096, 143.3613441892737 125.00000000000009, 141.00898493623458 127.97619047619057, 106.57954906431426 130.95238095238105, 142.63790159934788 133.92857142857153, 134.8426160792032 136.904761904762, 118.03873963527288 139.8809523809525, 149.70453779074495 142.85714285714297, 151.1196915088455 145.83333333333346, 157.76525939181144 148.80952380952394, 158.80447000767026 151.78571428571442, 119.68609116170823 154.7619047619049, 91.55224562571082 157.73809523809538, 167.047607929227 160.71428571428586, 158.15602371930893 163.69047619047635, 139.93822359405982 166.66666666666683, 126.90589646065682 169.6428571428573, 130.96800338267758 172.6190476190478, 122.2827236650856 175.59523809523827, 130.6539729856934 178.57142857142875, 196.7273182105094 181.54761904761924, 185.44335087391582 184.52380952380972, 158.75386001080682 187.5000000000002, 152.46767741395914 190.47619047619068, 130.09868156766439 193.45238095238116, 144.86238279315646 196.42857142857164, 139.80043322926088 199.40476190476213, 164.73180149001124 202.3809523809526, 135.63004388740802 205.3571428571431, 127.82932011384689 208.33333333333357, 153.66505815864977 211.30952380952405, 135.80147706190175 214.28571428571453, 97.2062991333632 217.26190476190501, 110.91582266989835 220.2380952380955, 95.02082868792425 223.21428571428598, 149.7962656043186 226.19047619047646, 156.02082337679022 229.16666666666694, 118.07158218701088 232.14285714285742, 145.97087040537025 235.1190476190479, 144.50875796296444 238.0952380952384, 124.03708188854978 241.07142857142887, 148.69259839965417 244.04761904761935, 189.22471917490506 247.02380952380983, 136.41589072650115 250.0000000000003, 143.76640719374984 252.9761904761908, 118.07991748011624 255.95238095238128, 133.03199475536402 258.92857142857173, 141.93204437738584 261.9047619047622, 128.69064390234357 264.8809523809527, 148.16129437222472 267.8571428571432, 124.11918394414279 270.83333333333366, 137.9155512278786 273.80952380952414, 116.873737983589 276.7857142857146, 97.65437622159054 279.7619047619051, 135.9218500467564 282.7380952380956, 129.55206302433953 285.71428571428606, 97.23297039303408 288.69047619047655, 51.853960964179734 291.666666666667, 118.30319895237508 294.6428571428575, 125.45541750657148 297.619047619048, 200 300.59523809523847, 102.66607222640476 303.57142857142895, 118.05442429536608 306.54761904761943, 99.42622515362778 309.5238095238099, 108.84746386115066 312.5000000000004, 75.99555448721689 315.4761904761909, 112.57920346475674 318.45238095238136, 129.59624119220493 321.42857142857184, 131.86010283208876 324.4047619047623, 142.96745362830015 327.3809523809528, 159.4517522243496 330.3571428571433, 152.5178898146147 333.33333333333377, 139.05886566035946 336.30952380952425, 95.66710651033148 339.28571428571473, 132.68211998491307 342.2619047619052, 161.7354731341584 345.2380952380957, 196.21253886516863 348.2142857142862, 98.6549274947328 351.19047619047666, 104.17866404368657 354.16666666666714, 104.84514505115443 357.1428571428576, 139.59596261775047 360.1190476190481, 153.2595378551574 363.0952380952386, 133.2770806450934 366.07142857142907, 124.2559845568013 369.04761904761955, 127.33411271199893 372.02380952381003, 103.60664734675633 375.0000000000005, 156.78903657523048 377.976190476191, 88.93116236826208 380.9523809523815, 139.25868408337053 383.92857142857196, 134.92597495223015 386.90476190476244, 135.71842065935408 389.8809523809529, 76.1775724017402 392.8571428571434, 83.14994609626767 395.8333333333339, 147.4122073025307 398.80952380952436, 102.88222055988324 401.78571428571485, 140.61894100593244 404.7619047619053, 140.68687490635864 407.7380952380958, 151.2086475604018 410.7142857142863, 114.71461145097244 413.6904761904768, 114.71461145097244 416.66666666666725, 122.68410537701344 419.64285714285774, 172.84368845512253 422.6190476190482, 138.69608705671172 425.5952380952387, 145.77498428451213 428.5714285714292, 146.6027659982233 431.54761904761966, 184.90528901490592 434.52380952381014, 184.90528901490592 437.5000000000006, 171.86959047006175 440.4761904761911, 117.49753499117863 443.4523809523816, 23.788520723758253 446.42857142857207, 98.19834975441792 449.40476190476255, 142.49884579418594 452.38095238095303, 199.42481674960982 455.3571428571435, 167.7608550173452 458.333333333334, 181.5725754913049 461.3095238095245, 179.76824547943144 464.28571428571496, 173.27406176362305 467.26190476190544, 125.47277715156902 470.2380952380959, 147.978182751075 473.2142857142864, 132.08125913364682 476.1904761904769, 115.17012893885092 479.16666666666737, 106.48997373438675 482.14285714285785, 182.33507886017864 485.11904761904833, 168.4717867118012 488.0952380952388, 109.59945483191194 491.0714285714293, 127.8982482367523 494.0476190476198, 145.91000738801029 497.02380952381026, 199.87880403677482 500.00000000000074" stroke="#22a079" stroke-width="0.5" stroke-opacity="1" fill="none" fill-opacity="0"></polyline></svg>