<svg xmlns="http://www.w3.org/2000/svg" version="1.1" width="250" height="100" viewBox="0 0 250 100" shape-rendering="auto"><polyline points="0, 100 1.4792899408284024, 99.83490110653773 2.9585798816568047, 99.8790837323331 4.437869822485207, 99.8315156783119 5.9171597633136095, 99.26467599347217 7.396449704142012, 94.79521623295774 8.875739644970414, 92.90562333951455 10.355029585798817, 91.25150147525842 11.834319526627219, 90.49505256085449 13.31360946745562, 90.38281444073901 14.792899408284022, 90.1607874026893 16.272189349112423, 90.40824461648454 17.751479289940825, 90.97599132051994 19.230769230769226, 91.63887469747472 20.710059171597628, 94.1502138257664 22.18934911242603, 94.84769631953812 23.66863905325443, 96.41643632478734 25.147928994082832, 95.54928019033 26.627218934911234, 94.96586998763884 28.106508875739635, 95.12119944353762 29.585798816568037, 96.05155371087338 31.06508875739644, 95.8309231602134 32.54437869822484, 95.70755521453871 34.02366863905324, 95.5995532481734 35.50295857988164, 95.62784637517045 36.982248520710044, 96.28531869478387 38.461538461538446, 96.46804265034834 39.94082840236685, 96.4735272983193 41.42011834319525, 96.5174142874008 42.89940828402365, 94.86096608518876 44.37869822485205, 93.50758910225902 45.85798816568045, 92.58809920706986 47.337278106508855, 92.2857145061166 48.816568047337256, 90.29949011600044 50.29585798816566, 88.14289422760417 51.77514792899406, 88.89531424759222 53.25443786982246, 88.68950070569267 54.73372781065086, 88.2851164606406 56.21301775147926, 90.81160406264536 57.692307692307665, 91.60429316250391 59.17159763313607, 91.46440566511872 60.65088757396447, 90.18037962957443 62.13017751479287, 90.44195703713865 63.60946745562127, 89.35196767225587 65.08875739644968, 88.41465263440918 66.56804733727809, 88.78832427045788 68.0473372781065, 88.45518622212715 69.5266272189349, 87.48553989081736 71.00591715976331, 85.95823050835955 72.48520710059172, 85.31510865648025 73.96449704142013, 85.12150614328915 75.44378698224854, 84.04228375391433 76.92307692307695, 85.84603151310338 78.40236686390536, 83.2041801422139 79.88165680473377, 77.9740178322566 81.36094674556217, 75.67850768886959 82.84023668639058, 73.0774438164348 84.31952662721899, 74.79316336267621 85.7988165680474, 74.92090980198421 87.27810650887581, 76.91830131491805 88.75739644970422, 74.92472404233014 90.23668639053263, 73.94927719626298 91.71597633136103, 73.46017589174573 93.19526627218944, 73.92308194095956 94.67455621301785, 74.28895100675938 96.15384615384626, 74.34925921743873 97.63313609467467, 73.39597178805825 99.11242603550308, 73.38264448243102 100.59171597633149, 75.9095076270243 102.0710059171599, 73.37065779638179 103.5502958579883, 74.19025518334743 105.02958579881671, 72.62277831515182 106.50887573964512, 73.50391804317451 107.98816568047353, 72.39731346302129 109.46745562130194, 71.42157061209879 110.94674556213035, 71.36751281184493 112.42603550295875, 71.24398655563654 113.90532544378716, 71.85898989752197 115.38461538461557, 71.4774635517293 116.86390532544398, 73.09689301194312 118.34319526627239, 76.54935795081876 119.8224852071008, 77.01551818625656 121.3017751479292, 76.28584873684595 122.78106508875761, 75.84128869241925 124.26035502958602, 76.46426316868865 125.73964497041443, 79.10638941042521 127.21893491124284, 82.19635009097914 128.69822485207123, 81.10158293412778 130.17751479289964, 82.78003413357555 131.65680473372805, 84.68442129472695 133.13609467455646, 85.08535120033049 134.61538461538487, 85.23569912325988 136.09467455621328, 84.78589770852886 137.5739644970417, 85.26095575224521 139.0532544378701, 83.38139612781883 140.5325443786985, 80.10414133508897 142.0118343195269, 81.12166161531133 143.49112426035532, 83.17453270627537 144.97041420118373, 82.8567688750226 146.44970414201214, 85.75170532073908 147.92899408284055, 85.49861128153428 149.40828402366895, 85.44142129029991 150.88757396449736, 86.92757705208653 152.36686390532577, 86.70444126239974 153.84615384615418, 87.00899277969509 155.3254437869826, 86.12126427393208 156.804733727811, 85.26815005143071 158.2840236686394, 85.85557042385184 159.76331360946782, 86.30586021486553 161.24260355029622, 86.52711564718234 162.72189349112463, 86.09035260103214 164.20118343195304, 85.79493359877607 165.68047337278145, 86.05405868775772 167.15976331360986, 86.8761136629003 168.63905325443827, 87.98667248895424 170.11834319526668, 87.3779178550429 171.59763313609508, 85.2641664743261 173.0769230769235, 83.96379655801773 174.5562130177519, 77.94401991929276 176.0355029585803, 78.20109853668794 177.51479289940872, 76.8801671671163 178.99408284023713, 79.07269759344024 180.47337278106554, 79.85858681272742 181.95266272189394, 79.74035886502166 183.43195266272235, 80.2275172186864 184.91124260355076, 79.16698060910025 186.39053254437917, 69.05274159782607 187.86982248520758, 74.11996613491866 189.349112426036, 72.61431901844387 190.8284023668644, 76.42357316983892 192.3076923076928, 74.80482345288722 193.7869822485212, 74.88669065675325 195.26627218934962, 73.64750155393337 196.74556213017803, 74.76284735803821 198.22485207100644, 74.80277879560951 199.70414201183485, 70.53833132665905 201.18343195266326, 69.93095609770063 202.66272189349166, 68.88834151167397 204.14201183432007, 67.71192895022192 205.62130177514848, 65.87195803063301 207.1005917159769, 65.93232227796211 208.5798816568053, 66.13921255719504 210.0591715976337, 65.6715908582689 211.53846153846212, 46.868336223164334 213.01775147929052, 43.79141489536072 214.49704142011893, 45.604968424758226 215.97633136094734, 46.605818006833196 217.45562130177575, 41.62197540033314 218.93491124260416, 25.963258139535494 220.41420118343257, 36.18778384394775 221.89349112426098, 35.81261157985249 223.37278106508938, 37.538600305521456 224.8520710059178, 36.89325649375256 226.3313609467462, 38.099873248586 227.8106508875746, 36.0137242268201 229.28994082840302, 30.87004073007068 230.76923076923143, 27.23518751342861 232.24852071005984, 20.617809671231843 233.72781065088824, 26.504642296486974 235.20710059171665, 21.228287658235736 236.68639053254506, 0 238.16568047337347, 3.657523696404769 239.64497041420188, 10.026623807057007 241.1242603550303, 14.103042285127252 242.6035502958587, 13.598716474831102 244.0828402366871, 20.34986280080515 245.5621301775155, 24.009358885161298 247.04142011834392, 22.14451101223526" fill="none" fill-opacity="0" stroke="yellow" stroke-opacity="1" stroke-width="2.25"></polyline></svg>