<svg xmlns="http://www.w3.org/2000/svg" width="250" height="100" viewBox="0 0 250 100" shape-rendering="auto"><polyline points="0, 100 1.4880952380952381, 99.83490110653773 2.9761904761904763, 99.8790837323331 4.464285714285714, 99.8315156783119 5.9523809523809526, 99.26467599347217 7.440476190476191, 94.79521623295774 8.928571428571429, 92.90562333951455 10.416666666666668, 91.25150147525842 11.904761904761905, 90.49505256085449 13.392857142857142, 90.38281444073901 14.88095238095238, 90.1607874026893 16.369047619047617, 90.40824461648454 17.857142857142854, 90.97599132051994 19.34523809523809, 91.63887469747472 20.83333333333333, 94.1502138257664 22.321428571428566, 94.84769631953812 23.809523809523803, 96.41643632478734 25.29761904761904, 95.54928019033 26.785714285714278, 94.96586998763884 28.273809523809515, 95.12119944353762 29.761904761904752, 96.05155371087338 31.24999999999999, 95.8309231602134 32.73809523809523, 95.70755521453871 34.22619047619047, 95.5995532481734 35.71428571428571, 95.62784637517045 37.20238095238095, 96.28531869478387 38.69047619047619, 96.46804265034834 40.17857142857143, 96.4735272983193 41.66666666666667, 96.5174142874008 43.15476190476191, 94.86096608518876 44.64285714285715, 93.50758910225902 46.130952380952394, 92.58809920706986 47.619047619047635, 92.2857145061166 49.107142857142875, 90.29949011600044 50.595238095238116, 88.14289422760417 52.08333333333336, 88.89531424759222 53.5714285714286, 88.68950070569267 55.05952380952384, 88.2851164606406 56.54761904761908, 90.81160406264536 58.03571428571432, 91.60429316250391 59.52380952380956, 91.46440566511872 61.0119047619048, 90.18037962957443 62.50000000000004, 90.44195703713865 63.98809523809528, 89.35196767225587 65.47619047619052, 88.41465263440918 66.96428571428577, 88.78832427045788 68.452380952381, 88.45518622212715 69.94047619047625, 87.48553989081736 71.42857142857149, 85.95823050835955 72.91666666666673, 85.31510865648025 74.40476190476197, 85.12150614328915 75.89285714285721, 84.04228375391433 77.38095238095245, 85.84603151310338 78.86904761904769, 83.2041801422139 80.35714285714293, 77.9740178322566 81.84523809523817, 75.67850768886959 83.33333333333341, 73.0774438164348 84.82142857142865, 74.79316336267621 86.3095238095239, 74.92090980198421 87.79761904761914, 76.91830131491805 89.28571428571438, 74.92472404233014 90.77380952380962, 73.94927719626298 92.26190476190486, 73.46017589174573 93.7500000000001, 73.92308194095956 95.23809523809534, 74.28895100675938 96.72619047619058, 74.34925921743873 98.21428571428582, 73.39597178805825 99.70238095238106, 73.38264448243102 101.1904761904763, 75.9095076270243 102.67857142857154, 73.37065779638179 104.16666666666679, 74.19025518334743 105.65476190476203, 72.62277831515182 107.14285714285727, 73.50391804317451 108.63095238095251, 72.39731346302129 110.11904761904775, 71.42157061209879 111.60714285714299, 71.36751281184493 113.09523809523823, 71.24398655563654 114.58333333333347, 71.85898989752197 116.07142857142871, 71.4774635517293 117.55952380952395, 73.09689301194312 119.0476190476192, 76.54935795081876 120.53571428571443, 77.01551818625656 122.02380952380967, 76.28584873684595 123.51190476190492, 75.84128869241925 125.00000000000016, 76.46426316868865 126.4880952380954, 79.10638941042521 127.97619047619064, 82.19635009097914 129.46428571428586, 81.10158293412778 130.9523809523811, 82.78003413357555 132.44047619047635, 84.68442129472695 133.9285714285716, 85.08535120033049 135.41666666666683, 85.23569912325988 136.90476190476207, 84.78589770852886 138.3928571428573, 85.26095575224521 139.88095238095255, 83.38139612781883 141.3690476190478, 80.10414133508897 142.85714285714303, 81.12166161531133 144.34523809523827, 83.17453270627537 145.8333333333335, 82.8567688750226 147.32142857142875, 85.75170532073908 148.809523809524, 85.49861128153428 150.29761904761924, 85.44142129029991 151.78571428571448, 86.92757705208653 153.27380952380972, 86.70444126239974 154.76190476190496, 87.00899277969509 156.2500000000002, 86.12126427393208 157.73809523809544, 85.26815005143071 159.22619047619068, 85.85557042385184 160.71428571428592, 86.30586021486553 162.20238095238116, 86.52711564718234 163.6904761904764, 86.09035260103214 165.17857142857164, 85.79493359877607 166.66666666666688, 86.05405868775772 168.15476190476213, 86.8761136629003 169.64285714285737, 87.98667248895424 171.1309523809526, 87.3779178550429 172.61904761904785, 85.2641664743261 174.1071428571431, 83.96379655801773 175.59523809523833, 77.94401991929276 177.08333333333357, 78.20109853668794 178.5714285714288, 76.8801671671163 180.05952380952405, 79.07269759344024 181.5476190476193, 79.85858681272742 183.03571428571453, 79.74035886502166 184.52380952380977, 80.2275172186864 186.01190476190501, 79.16698060910025 187.50000000000026, 69.05274159782607 188.9880952380955, 74.11996613491866 190.47619047619074, 72.61431901844387 191.96428571428598, 76.42357316983892 193.45238095238122, 74.80482345288722 194.94047619047646, 74.88669065675325 196.4285714285717, 73.64750155393337 197.91666666666694, 74.76284735803821 199.40476190476218, 74.80277879560951 200.89285714285742, 70.53833132665905 202.38095238095266, 69.93095609770063 203.8690476190479, 68.88834151167397 205.35714285714315, 67.71192895022192 206.8452380952384, 65.87195803063301 208.33333333333363, 65.93232227796211 209.82142857142887, 66.13921255719504 211.3095238095241, 65.6715908582689 212.79761904761935, 46.868336223164334 214.2857142857146, 43.79141489536072 215.77380952380983, 45.604968424758226 217.26190476190507, 46.605818006833196 218.7500000000003, 41.62197540033314 220.23809523809555, 25.963258139535494 221.7261904761908, 36.18778384394775 223.21428571428604, 35.81261157985249 224.70238095238128, 37.538600305521456 226.19047619047652, 36.89325649375256 227.67857142857176, 38.099873248586 229.166666666667, 36.0137242268201 230.65476190476224, 30.87004073007068 232.14285714285748, 27.23518751342861 233.63095238095272, 20.617809671231843 235.11904761904796, 26.504642296486974 236.6071428571432, 21.228287658235736 238.09523809523844, 0 239.58333333333368, 3.657523696404769 241.07142857142892, 10.026623807057007 242.55952380952417, 14.103042285127252 244.0476190476194, 13.598716474831102 245.53571428571465, 20.34986280080515 247.0238095238099, 24.009358885161298 248.51190476190513, 22.14451101223526 250.00000000000037" stroke="#e6007a" stroke-width="2.25" stroke-opacity="1" fill="none" fill-opacity="0"></polyline></svg>