<svg xmlns="http://www.w3.org/2000/svg" version="1.1" width="135" height="50" viewBox="0 0 135 50" shape-rendering="geometricPrecision"><polyline points="0, 48.529238772337635 0.7988165680473372, 46.074646028363034 1.5976331360946745, 45.94157640813032 2.396449704142012, 47.13219059065209 3.195266272189349, 47.69948638778911 3.994082840236686, 47.46323312211849 4.792899408284024, 47.05766855458176 5.591715976331361, 46.237653574566984 6.390532544378699, 46.0250386368898 7.1893491124260365, 46.97605674999558 7.988165680473374, 47.18041922767315 8.786982248520712, 46.034888134891794 9.58579881656805, 46.725761172909614 10.384615384615387, 47.21664878704065 11.183431952662724, 47.32618131369698 11.982248520710062, 47.92181262779562 12.7810650887574, 48.56975537788289 13.579881656804737, 48.190595051659045 14.378698224852075, 48.27318927053813 15.177514792899412, 48.71740869512344 15.97633136094675, 48.48128340727657 16.775147928994087, 46.721246171719265 17.573964497041423, 45.28447698453002 18.37278106508876, 45.256461909060796 19.171597633136095, 46.11784547977952 19.97041420118343, 45.39966910284654 20.769230769230766, 46.030386679046245 21.568047337278102, 45.50839652969192 22.366863905325438, 44.93184957670492 23.165680473372774, 45.56337731098468 23.96449704142011, 45.26753155097667 24.763313609467446, 43.74450220901933 25.56213017751478, 45.877500633404836 26.360946745562117, 44.389991337893974 27.159763313609453, 45.03739644661036 27.95857988165679, 45.490175571988026 28.757396449704125, 45.369320038105414 29.55621301775146, 44.28209967770532 30.355029585798796, 45.94423543578622 31.153846153846132, 46.01499383970424 31.952662721893468, 46.576439445104214 32.751479289940804, 46.9746868212181 33.55029585798814, 47.58334635240822 34.349112426035475, 46.1695212127691 35.14792899408281, 46.80924430476875 35.94674556213015, 46.544010732261576 36.74556213017748, 46.494951945304145 37.54437869822482, 50 38.343195266272154, 49.591786879099025 39.14201183431949, 48.98511574619878 39.940828402366826, 49.5719405422377 40.73964497041416, 48.94785408560814 41.5384615384615, 49.917280850166954 42.33727810650883, 46.623932658344344 43.13609467455617, 46.32467325059417 43.934911242603505, 46.24175180024721 44.73372781065084, 45.752424738011435 45.53254437869818, 45.59142181411893 46.33136094674551, 45.25425248642455 47.13017751479285, 43.7428213923501 47.928994082840184, 41.861134422699216 48.72781065088752, 44.02314762827749 49.526627218934856, 44.6750560166009 50.32544378698219, 43.5133148000094 51.12426035502953, 43.20833232079083 51.92307692307686, 44.634073204272234 52.7218934911242, 42.95396464858685 53.520710059171535, 43.990357666953884 54.31952662721887, 44.291121916155475 55.118343195266206, 43.76764975195665 55.91715976331354, 43.53764691502061 56.71597633136088, 46.655521517210666 57.514792899408214, 47.088393576138394 58.31360946745555, 46.40185774899147 59.112426035502885, 47.599304422310276 59.91124260355022, 45.17862596937028 60.71005917159756, 44.755486732146075 61.50887573964489, 45.16474645505202 62.30769230769223, 43.213539240981106 63.106508875739564, 44.303379219708795 63.9053254437869, 46.161095121631206 64.70414201183424, 44.63848077688773 65.50295857988158, 45.26938231725458 66.30177514792892, 44.943053739715175 67.10059171597626, 46.22722547582255 67.89940828402361, 45.19877970502228 68.69822485207095, 43.981304007585145 69.4970414201183, 43.89529723080917 70.29585798816564, 44.1823148247783 71.09467455621298, 44.53626840306475 71.89349112426032, 42.50597070417187 72.69230769230766, 43.45463593622894 73.49112426035501, 31.38736378246985 74.28994082840235, 29.788640595118736 75.0887573964497, 30.090699068261934 75.88757396449704, 27.393672081019982 76.68639053254438, 28.243351229346576 77.48520710059172, 24.662574480076046 78.28402366863907, 21.672082226007326 79.08284023668641, 24.398201400357884 79.88165680473375, 28.35220792665621 80.6804733727811, 25.85480659533247 81.47928994082844, 25.738143428231623 82.27810650887578, 23.212497390839932 83.07692307692312, 26.651421189474128 83.87573964497047, 24.580727810408412 84.67455621301781, 24.296319439673102 85.47337278106515, 24.265164133654903 86.2721893491125, 23.223200760674896 87.07100591715984, 26.039525842087123 87.86982248520718, 24.70642755993517 88.66863905325452, 24.97087138706375 89.46745562130187, 25.592045474549046 90.26627218934921, 27.515364854293562 91.06508875739655, 27.22097552334605 91.8639053254439, 27.823386426914194 92.66272189349124, 31.089477390634666 93.46153846153858, 30.408462351225086 94.26035502958592, 30.34297505169744 95.05917159763327, 27.523692936432465 95.85798816568061, 26.82092139019016 96.65680473372795, 28.397033935842032 97.4556213017753, 28.707704063399447 98.25443786982264, 26.607251668347704 99.05325443786998, 27.754743538907455 99.85207100591732, 28.41079850192587 100.65088757396467, 25.419368284899925 101.44970414201201, 24.662407574760433 102.24852071005935, 24.683857028764635 103.0473372781067, 25.3070818675127 103.84615384615404, 24.75657265970914 104.64497041420138, 10.235060299124802 105.44378698224872, 8.696442865160723 106.24260355029607, 10.240918704183134 107.04142011834341, 9.259138941641623 107.84023668639075, 11.484622434177902 108.6390532544381, 12.201376323949054 109.43786982248544, 11.48853114466275 110.23668639053278, 12.379357050636717 111.03550295858012, 11.941361621307344 111.83431952662747, 13.059144334960324 112.63313609467481, 10.83291169414015 113.43195266272215, 11.09562411894689 114.2307692307695, 12.530232163945696 115.02958579881684, 10.832080460498092 115.82840236686418, 12.812688294196908 116.62721893491153, 11.807122857155164 117.42603550295887, 12.187642382822458 118.22485207100621, 7.8146506651858045 119.02366863905355, 0 119.8224852071009, 2.8677038712922247 120.62130177514824, 4.449671409998858 121.42011834319558, 3.62919376053953 122.21893491124293, 4.123813390610278 123.01775147929027, 0.88767334977563 123.81656804733761, 2.435034214929573 124.61538461538495, 1.7357055836822635 125.4142011834323, 2.8642722066308535 126.21301775147964, 4.030256757295823 127.01183431952698, 5.118802113045189 127.81065088757433, 4.919417032610703 128.60946745562165, 6.827108988276956 129.40828402366898, 7.420970626839653 130.2071005917163, 12.563871964402946 131.00591715976364, 11.212420334895805 131.80473372781097, 9.84383296788119 132.6035502958583, 8.401342890215098 133.40236686390563, 7.1909759953542265" fill="none" fill-opacity="0" stroke="#57bd0f" stroke-opacity="1" stroke-width="1.25"></polyline></svg>