<svg xmlns="http://www.w3.org/2000/svg" width="135" height="50" viewBox="0 0 135 50" shape-rendering="auto"><polyline points="0, 47.95114073025639 0.8035714285714286, 48.40824904659314 1.6071428571428572, 48.540903201079296 2.4107142857142856, 48.31002217873981 3.2142857142857144, 48.20857783505814 4.017857142857143, 49.58373801531659 4.821428571428572, 49.774659233946025 5.625000000000001, 49.47185785407331 6.42857142857143, 50 7.2321428571428585, 48.932343008485816 8.035714285714286, 48.74571451825503 8.839285714285715, 48.926221352599335 9.642857142857144, 48.06562790142635 10.446428571428573, 48.54630936967633 11.250000000000002, 49.3656678303284 12.05357142857143, 48.694108231584174 12.85714285714286, 48.97237172408217 13.660714285714288, 48.82844224558507 14.464285714285717, 49.39483508090558 15.267857142857146, 48.94123195313183 16.071428571428573, 48.40425586744451 16.875, 48.36632198306968 17.678571428571427, 48.49291308008901 18.482142857142854, 48.64902675643046 19.28571428571428, 47.75354989933469 20.089285714285708, 48.17196526812604 20.892857142857135, 42.849611335567346 21.696428571428562, 42.144483404842724 22.49999999999999, 42.27770838575903 23.303571428571416, 41.088165959860184 24.107142857142843, 41.4629228310807 24.91071428571427, 39.88359645389628 25.714285714285698, 38.564619140223044 26.517857142857125, 39.766992876669235 27.32142857142855, 41.51093483111094 28.12499999999998, 40.40943868288596 28.928571428571406, 40.357983585305305 29.732142857142833, 39.24402991391359 30.53571428571426, 40.760791065084675 31.339285714285687, 39.84749741356456 32.14285714285712, 39.72205713251777 32.94642857142855, 39.7083158690911 33.74999999999998, 39.24875070928531 34.55357142857141, 40.490910385592 35.35714285714284, 39.90293815838997 36.16071428571427, 40.019572939252214 36.9642857142857, 40.29354607130767 37.76785714285713, 41.141839400066374 38.57142857142856, 41.011996947413664 39.37499999999999, 41.2776944472934 40.17857142857142, 42.718226479997824 40.982142857142854, 42.41786008178047 41.785714285714285, 42.388976454914975 42.589285714285715, 41.14551255835417 43.392857142857146, 40.83555030216457 44.19642857142858, 41.530705652820366 45.00000000000001, 41.667728863539836 45.80357142857144, 40.74130979197912 46.60714285714287, 41.247419026281115 47.4107142857143, 41.5367766099922 48.21428571428573, 40.217385601262585 49.01785714285716, 39.88352283915123 49.82142857142859, 39.892983269347546 50.62500000000002, 40.167860899446055 51.42857142857145, 39.925055001830636 52.23214285714288, 33.52024143383802 53.03571428571431, 32.841623561793824 53.839285714285744, 33.52282532395033 54.642857142857174, 33.08980456221657 55.446428571428605, 34.071369464989985 56.250000000000036, 34.387498730601344 57.053571428571466, 34.07309342881174 57.8571428571429, 34.46599836237692 58.66071428571433, 34.27281744575959 59.46428571428576, 34.765823250713105 60.26785714285719, 33.78392793090226 61.07142857142862, 33.89979906478289 61.87500000000005, 34.532542875703 62.67857142857148, 33.783561309549285 63.48214285714291, 34.65712210756772 64.28571428571433, 34.21361050941279 65.08928571428577, 34.381441280778944 65.8928571428572, 32.45270300680542 66.69642857142863, 29.005997225294756 67.50000000000006, 30.27081787260496 68.30357142857149, 30.968555608485275 69.10714285714292, 30.6066782605201 69.91071428571435, 30.82483367291856 70.71428571428578, 29.39751170212158 71.51785714285721, 30.079985925028208 72.32142857142864, 29.771542190334564 73.12500000000007, 30.269304313146538 73.9285714285715, 30.783569872045135 74.73214285714293, 31.263680337867054 75.53571428571436, 31.17574016767594 76.3392857142858, 32.01714091284667 77.14285714285722, 32.27906770020394 77.94642857142865, 34.54737994260369 78.75000000000009, 33.951312844479155 79.55357142857152, 33.3476879106857 80.35714285714295, 32.71146767468552 81.16071428571438, 32.17762697559307 81.96428571428581, 32.87130564684069 82.76785714285724, 33.00796219739704 83.57142857142867, 33.2131102241288 84.3750000000001, 32.37268803918753 85.17857142857153, 32.10971766463004 85.98214285714296, 32.63409768119387 86.78571428571439, 30.953065777591902 87.58928571428582, 30.839929613753696 88.39285714285725, 30.468471739820707 89.19642857142868, 28.525699942373144 90.00000000000011, 29.866537875281495 90.80357142857154, 32.12146629473177 91.60714285714297, 32.15857860402017 92.4107142857144, 32.215423227781486 93.21428571428584, 31.176945385545658 94.01785714285727, 30.512091195520796 94.8214285714287, 30.227262722327016 95.62500000000013, 30.435880520961835 96.42857142857156, 30.12368476394099 97.23214285714299, 29.891012839416277 98.03571428571442, 30.814134958880796 98.83928571428585, 29.974743017328464 99.64285714285728, 30.90514682815069 100.44642857142871, 30.44647617732504 101.25000000000014, 30.61914355117773 102.05357142857157, 29.645169620870256 102.857142857143, 30.41161837708245 103.66071428571443, 30.19374942682207 104.46428571428586, 30.056034766111967 105.2678571428573, 28.936779576328682 106.07142857142873, 25.64325722679684 106.87500000000016, 26.723276099704744 107.67857142857159, 25.995678443694725 108.48214285714302, 24.30399811397955 109.28571428571445, 25.03954247639258 110.08928571428588, 24.92278677528818 110.89285714285731, 25.344335612600453 111.69642857142874, 25.79700426850024 112.50000000000017, 26.8576818707032 113.3035714285716, 26.52752288472454 114.10714285714303, 26.080289863906575 114.91071428571446, 26.563036202715985 115.7142857142859, 26.15128642882408 116.51785714285732, 25.206818548018404 117.32142857142875, 24.436097759322685 118.12500000000018, 22.375985635817756 118.92857142857162, 19.58783652476048 119.73214285714305, 11.978715415592124 120.53571428571448, 13.03320713746349 121.33928571428591, 17.74057160649598 122.14285714285734, 16.69329880305873 122.94642857142877, 14.36527446332854 123.7500000000002, 13.234442649584413 124.55357142857163, 15.663737297497343 125.35714285714306, 15.823704600369432 126.16071428571449, 15.481960314752014 126.96428571428592, 17.682257245933343 127.76785714285735, 16.78689727881089 128.57142857142878, 17.137081779108737 129.3750000000002, 15.239174650859916 130.17857142857162, 14.764870320851978 130.98214285714303, 11.750053531108334 131.78571428571445, 8.351919272038565 132.58928571428586, 8.841247611263208 133.39285714285728, 0 134.1964285714287, 2.0126821796265686 135.0000000000001" stroke="#57bd0f" stroke-width="1.25" stroke-opacity="1" fill="none" fill-opacity="0"></polyline></svg>