<svg xmlns="http://www.w3.org/2000/svg" version="1.1" width="135" height="50" viewBox="0 0 135 50" shape-rendering="auto"><polyline points="0, 1.8989362318170475 0.7988165680473372, 0 1.5976331360946745, 0.7136175228302034 2.396449704142012, 3.012628697506304 3.195266272189349, 4.81154000245112 3.994082840236686, 5.093513734295916 4.792899408284024, 6.552133399397615 5.591715976331361, 7.409445853009555 6.390532544378699, 5.4592256873043645 7.1893491124260365, 5.1527706669977835 7.988165680473374, 6.875835497049297 8.786982248520712, 6.502166775613097 9.58579881656805, 7.809798639545814 10.384615384615387, 20.401892205943415 11.183431952662724, 19.418243734868646 11.982248520710062, 21.286719761093455 12.7810650887574, 22.029315447484418 13.579881656804737, 21.87185807392007 14.378698224852075, 22.81823747077044 15.177514792899412, 22.88766184519387 15.97633136094675, 19.723320975713353 16.775147928994087, 16.2926398069685 17.573964497041423, 15.365067838485047 18.37278106508876, 17.384164408399368 19.171597633136095, 19.367675190419977 19.97041420118343, 20.436028863314387 20.769230769230766, 19.06052822481057 21.568047337278102, 19.67318431663302 22.366863905325438, 18.682593998171594 23.165680473372774, 12.711248073567347 23.96449704142011, 13.715327081723883 24.763313609467446, 13.086888982500808 25.56213017751478, 15.18519145641629 26.360946745562117, 14.430124817707174 27.159763313609453, 14.199696735747633 27.95857988165679, 19.34396840882257 28.757396449704125, 18.446558928351585 29.55621301775146, 16.2106638473656 30.355029585798796, 18.491667022998968 31.153846153846132, 20.190251272822714 31.952662721893468, 21.66196783056319 32.751479289940804, 20.96134462901507 33.55029585798814, 20.60564850167421 34.349112426035475, 18.73783803454301 35.14792899408281, 18.94417201081265 35.94674556213015, 19.073577000993314 36.74556213017748, 18.919876456620067 37.54437869822482, 22.19516441711154 38.343195266272154, 22.48532779177765 39.14201183431949, 21.91813769039485 39.940828402366826, 22.346541472758457 40.73964497041416, 22.522900898224442 41.5384615384615, 22.516026970746918 42.33727810650883, 19.863763254381045 43.13609467455617, 21.110161947355778 43.934911242603505, 21.328287767804692 44.73372781065084, 20.605599494339376 45.53254437869818, 13.796872299460928 46.33136094674551, 12.68722229941272 47.13017751479285, 15.475153972206842 47.928994082840184, 14.827615125314999 48.72781065088752, 16.253331950762004 49.526627218934856, 17.129710250138555 50.32544378698219, 16.13530548800758 51.12426035502953, 14.912551436630073 51.92307692307686, 15.415703135320353 52.7218934911242, 15.406976910324898 53.520710059171535, 16.51820548506982 54.31952662721887, 15.176425081742256 55.118343195266206, 15.597829942573352 55.91715976331354, 17.50574584182924 56.71597633136088, 20.55447638165066 57.514792899408214, 20.586063422474226 58.31360946745555, 20.933283432693894 59.112426035502885, 23.53334078832177 59.91124260355022, 21.978474959286814 60.71005917159756, 22.24597799809945 61.50887573964489, 24.03645777324945 62.30769230769223, 24.85893259837165 63.106508875739564, 34.47032807346325 63.9053254437869, 40.578558206256695 64.70414201183424, 35.29355188859532 65.50295857988158, 34.52478966651477 66.30177514792892, 36.94087434661409 67.10059171597626, 43.17372334279004 67.89940828402361, 41.78005246139412 68.69822485207095, 40.84009867220175 69.4970414201183, 38.89328768866151 70.29585798816564, 39.46199223299665 71.09467455621298, 38.36938346383986 71.89349112426032, 38.46168269979345 72.69230769230766, 39.20171078418346 73.49112426035501, 36.346071199815434 74.28994082840235, 37.88654778834988 75.0887573964497, 33.633206168839926 75.88757396449704, 30.18958068589617 76.68639053254438, 31.55920735859557 77.48520710059172, 36.10802483549213 78.28402366863907, 43.069931568208105 79.08284023668641, 39.99379724386184 79.88165680473375, 40.33666701016139 80.6804733727811, 41.58356769425019 81.47928994082844, 41.56260629224681 82.27810650887578, 41.692925293470296 83.07692307692312, 47.54668840981437 83.87573964497047, 50 84.67455621301781, 46.84136081787471 85.47337278106515, 45.34840195267046 86.2721893491125, 42.18830140199202 87.07100591715984, 44.440970435031204 87.86982248520718, 44.13632061630221 88.66863905325452, 45.9856263067054 89.46745562130187, 46.07570554934914 90.26627218934921, 47.13068155635164 91.06508875739655, 47.13878951836114 91.8639053254439, 45.947791353148055 92.66272189349124, 46.81788887141055 93.46153846153858, 47.4181379810398 94.26035502958592, 45.68444990244482 95.05917159763327, 39.61318255791479 95.85798816568061, 40.413193230113734 96.65680473372795, 36.15360276897637 97.4556213017753, 32.99580322836498 98.25443786982264, 35.270852505464156 99.05325443786998, 34.82166644970747 99.85207100591732, 39.14684524533823 100.65088757396467, 38.710027988825495 101.44970414201201, 38.63791006935906 102.24852071005935, 39.60066041266402 103.0473372781067, 34.22064357820189 103.84615384615404, 35.54456094549071 104.64497041420138, 36.94879409247339 105.44378698224872, 35.60646550706718 106.24260355029607, 29.93475855862514 107.04142011834341, 28.15141392351373 107.84023668639075, 26.388608242320487 108.6390532544381, 28.374122868206097 109.43786982248544, 27.129903142377493 110.23668639053278, 28.913187882406504 111.03550295858012, 27.11227398237285 111.83431952662747, 26.43059468043809 112.63313609467481, 21.502980642875023 113.43195266272215, 21.30423654278677 114.2307692307695, 19.459216314827405 115.02958579881684, 19.880449516542143 115.82840236686418, 21.98773825104844 116.62721893491153, 17.91349428847855 117.42603550295887, 19.092999218536537 118.22485207100621, 15.951533459130937 119.02366863905355, 18.10223849352574 119.8224852071009, 24.003322987485966 120.62130177514824, 21.04232765442538 121.42011834319558, 24.443845541797764 122.21893491124293, 23.892275571394162 123.01775147929027, 24.065813832839833 123.81656804733761, 21.447505504825504 124.61538461538495, 21.652409938409964 125.4142011834323, 23.940109923607313 126.21301775147964, 23.104064560816596 127.01183431952698, 23.85414636816908 127.81065088757433, 26.16947678034015 128.60946745562165, 26.782602022460782 129.40828402366898, 26.43107368069572 130.2071005917163, 27.336955915622003 131.00591715976364, 26.85504616057125 131.80473372781097, 27.128189770900697 132.6035502958583, 26.305676599678797 133.40236686390563, 25.896299370823677" fill="none" fill-opacity="0" stroke="#ed5565" stroke-opacity="1" stroke-width="1.25"></polyline></svg>