<svg xmlns="http://www.w3.org/2000/svg" width="135" height="50" viewBox="0 0 135 50" shape-rendering="auto"><polyline points="0, 1.8989362318170475 0.8035714285714286, 0 1.6071428571428572, 0.7136175228302034 2.4107142857142856, 3.012628697506304 3.2142857142857144, 4.81154000245112 4.017857142857143, 5.093513734295916 4.821428571428572, 6.552133399397615 5.625000000000001, 7.409445853009555 6.42857142857143, 5.4592256873043645 7.2321428571428585, 5.1527706669977835 8.035714285714286, 6.875835497049297 8.839285714285715, 6.502166775613097 9.642857142857144, 7.809798639545814 10.446428571428573, 20.401892205943415 11.250000000000002, 19.418243734868646 12.05357142857143, 21.286719761093455 12.85714285714286, 22.029315447484418 13.660714285714288, 21.87185807392007 14.464285714285717, 22.81823747077044 15.267857142857146, 22.88766184519387 16.071428571428573, 19.723320975713353 16.875, 16.2926398069685 17.678571428571427, 15.365067838485047 18.482142857142854, 17.384164408399368 19.28571428571428, 19.367675190419977 20.089285714285708, 20.436028863314387 20.892857142857135, 19.06052822481057 21.696428571428562, 19.67318431663302 22.49999999999999, 18.682593998171594 23.303571428571416, 12.711248073567347 24.107142857142843, 13.715327081723883 24.91071428571427, 13.086888982500808 25.714285714285698, 15.18519145641629 26.517857142857125, 14.430124817707174 27.32142857142855, 14.199696735747633 28.12499999999998, 19.34396840882257 28.928571428571406, 18.446558928351585 29.732142857142833, 16.2106638473656 30.53571428571426, 18.491667022998968 31.339285714285687, 20.190251272822714 32.14285714285712, 21.66196783056319 32.94642857142855, 20.96134462901507 33.74999999999998, 20.60564850167421 34.55357142857141, 18.73783803454301 35.35714285714284, 18.94417201081265 36.16071428571427, 19.073577000993314 36.9642857142857, 18.919876456620067 37.76785714285713, 22.19516441711154 38.57142857142856, 22.48532779177765 39.37499999999999, 21.91813769039485 40.17857142857142, 22.346541472758457 40.982142857142854, 22.522900898224442 41.785714285714285, 22.516026970746918 42.589285714285715, 19.863763254381045 43.392857142857146, 21.110161947355778 44.19642857142858, 21.328287767804692 45.00000000000001, 20.605599494339376 45.80357142857144, 13.796872299460928 46.60714285714287, 12.68722229941272 47.4107142857143, 15.475153972206842 48.21428571428573, 14.827615125314999 49.01785714285716, 16.253331950762004 49.82142857142859, 17.129710250138555 50.62500000000002, 16.13530548800758 51.42857142857145, 14.912551436630073 52.23214285714288, 15.415703135320353 53.03571428571431, 15.406976910324898 53.839285714285744, 16.51820548506982 54.642857142857174, 15.176425081742256 55.446428571428605, 15.597829942573352 56.250000000000036, 17.50574584182924 57.053571428571466, 20.55447638165066 57.8571428571429, 20.586063422474226 58.66071428571433, 20.933283432693894 59.46428571428576, 23.53334078832177 60.26785714285719, 21.978474959286814 61.07142857142862, 22.24597799809945 61.87500000000005, 24.03645777324945 62.67857142857148, 24.85893259837165 63.48214285714291, 34.47032807346325 64.28571428571433, 40.578558206256695 65.08928571428577, 35.29355188859532 65.8928571428572, 34.52478966651477 66.69642857142863, 36.94087434661409 67.50000000000006, 43.17372334279004 68.30357142857149, 41.78005246139412 69.10714285714292, 40.84009867220175 69.91071428571435, 38.89328768866151 70.71428571428578, 39.46199223299665 71.51785714285721, 38.36938346383986 72.32142857142864, 38.46168269979345 73.12500000000007, 39.20171078418346 73.9285714285715, 36.346071199815434 74.73214285714293, 37.88654778834988 75.53571428571436, 33.633206168839926 76.3392857142858, 30.18958068589617 77.14285714285722, 31.55920735859557 77.94642857142865, 36.10802483549213 78.75000000000009, 43.069931568208105 79.55357142857152, 39.99379724386184 80.35714285714295, 40.33666701016139 81.16071428571438, 41.58356769425019 81.96428571428581, 41.56260629224681 82.76785714285724, 41.692925293470296 83.57142857142867, 47.54668840981437 84.3750000000001, 50 85.17857142857153, 46.84136081787471 85.98214285714296, 45.34840195267046 86.78571428571439, 42.18830140199202 87.58928571428582, 44.440970435031204 88.39285714285725, 44.13632061630221 89.19642857142868, 45.9856263067054 90.00000000000011, 46.07570554934914 90.80357142857154, 47.13068155635164 91.60714285714297, 47.13878951836114 92.4107142857144, 45.947791353148055 93.21428571428584, 46.81788887141055 94.01785714285727, 47.4181379810398 94.8214285714287, 45.68444990244482 95.62500000000013, 39.61318255791479 96.42857142857156, 40.413193230113734 97.23214285714299, 36.15360276897637 98.03571428571442, 32.99580322836498 98.83928571428585, 35.270852505464156 99.64285714285728, 34.82166644970747 100.44642857142871, 39.14684524533823 101.25000000000014, 38.710027988825495 102.05357142857157, 38.63791006935906 102.857142857143, 39.60066041266402 103.66071428571443, 34.22064357820189 104.46428571428586, 35.54456094549071 105.2678571428573, 36.94879409247339 106.07142857142873, 35.60646550706718 106.87500000000016, 29.93475855862514 107.67857142857159, 28.15141392351373 108.48214285714302, 26.388608242320487 109.28571428571445, 28.374122868206097 110.08928571428588, 27.129903142377493 110.89285714285731, 28.913187882406504 111.69642857142874, 27.11227398237285 112.50000000000017, 26.43059468043809 113.3035714285716, 21.502980642875023 114.10714285714303, 21.30423654278677 114.91071428571446, 19.459216314827405 115.7142857142859, 19.880449516542143 116.51785714285732, 21.98773825104844 117.32142857142875, 17.91349428847855 118.12500000000018, 19.092999218536537 118.92857142857162, 15.951533459130937 119.73214285714305, 18.10223849352574 120.53571428571448, 24.003322987485966 121.33928571428591, 21.04232765442538 122.14285714285734, 24.443845541797764 122.94642857142877, 23.892275571394162 123.7500000000002, 24.065813832839833 124.55357142857163, 21.447505504825504 125.35714285714306, 21.652409938409964 126.16071428571449, 23.940109923607313 126.96428571428592, 23.104064560816596 127.76785714285735, 23.85414636816908 128.57142857142878, 26.16947678034015 129.3750000000002, 26.782602022460782 130.17857142857162, 26.43107368069572 130.98214285714303, 27.336955915622003 131.78571428571445, 26.85504616057125 132.58928571428586, 27.128189770900697 133.39285714285728, 26.305676599678797 134.1964285714287, 25.896299370823677 135.0000000000001" stroke="#ed5565" stroke-width="1.25" stroke-opacity="1" fill="none" fill-opacity="0"></polyline></svg>