<svg xmlns="http://www.w3.org/2000/svg" width="135" height="50" viewBox="0 0 135 50" shape-rendering="auto"><polyline points="0, 49.046342800434076 0.8035714285714286, 48.681976555713106 1.6071428571428572, 48.943657947795934 2.4107142857142856, 49.16989071067883 3.2142857142857144, 49.446544636401576 4.017857142857143, 49.39467935455681 4.821428571428572, 49.417637630417545 5.625000000000001, 49.17810179681229 6.42857142857143, 49.389162299702434 7.2321428571428585, 50 8.035714285714286, 49.76107451431057 8.839285714285715, 49.489037765416256 9.642857142857144, 49.73300069257113 10.446428571428573, 49.97435642577221 11.250000000000002, 49.939447800729376 12.05357142857143, 49.47091987608606 12.85714285714286, 49.439245441961575 13.660714285714288, 49.31440920302846 14.464285714285717, 49.33660634501018 15.267857142857146, 49.31598824575275 16.071428571428573, 49.141734036375354 16.875, 47.72535363529142 17.678571428571427, 47.29904627656835 18.482142857142854, 47.5024701197392 19.28571428571428, 47.30502339144771 20.089285714285708, 47.26597164176026 20.892857142857135, 47.84790054795632 21.696428571428562, 47.40754538565067 22.49999999999999, 47.101968995166736 23.303571428571416, 47.617277422387154 24.107142857142843, 47.47776341904522 24.91071428571427, 46.30361236333272 25.714285714285698, 46.62923468510669 26.517857142857125, 45.81009354452611 27.32142857142855, 46.30528120778049 28.12499999999998, 46.710252922617286 28.928571428571406, 46.47849695850109 29.732142857142833, 46.21044600266286 30.53571428571426, 46.55327297356665 31.339285714285687, 46.95668428433088 32.14285714285712, 47.21064457252934 32.94642857142855, 47.34831251339465 33.74999999999998, 48.13092055951446 34.55357142857141, 47.70576237214598 35.35714285714284, 47.6848518196313 36.16071428571427, 47.41767461715754 36.9642857142857, 47.34981964854501 37.76785714285713, 48.42403243869183 38.57142857142856, 48.60570000801469 39.37499999999999, 48.37744398848563 40.17857142857142, 48.50172591751794 40.982142857142854, 48.31585922462779 41.785714285714285, 48.58205877680616 42.589285714285715, 47.556659972091204 43.392857142857146, 47.46215844828274 44.19642857142858, 46.974506811723984 45.00000000000001, 46.92856346705964 45.80357142857144, 46.73746664573212 46.60714285714287, 46.62237163776682 47.4107142857143, 44.50552667347205 48.21428571428573, 42.960047358862695 49.01785714285716, 43.30758394562507 49.82142857142859, 43.77824137200664 50.62500000000002, 43.46936031015151 51.42857142857145, 43.20124106614907 52.23214285714288, 43.315373274073266 53.03571428571431, 42.904620492334494 53.839285714285744, 43.331311941387455 54.642857142857174, 43.37289382774341 55.446428571428605, 43.117341053706625 56.250000000000036, 42.91938014923165 57.053571428571466, 44.46709250887456 57.8571428571429, 44.3066764761613 58.66071428571433, 43.84156230692999 59.46428571428576, 44.57036971590548 60.26785714285719, 44.35116586155941 61.07142857142862, 43.93893203664696 61.87500000000005, 44.06240509536465 62.67857142857148, 43.58007250904638 63.48214285714291, 43.99425436769718 64.28571428571433, 47.02783299241074 65.08928571428577, 45.903599277343396 65.8928571428572, 46.005961786740244 66.69642857142863, 45.96284874311098 67.50000000000006, 46.063657713206766 68.30357142857149, 45.53147336594211 69.10714285714292, 44.88065383025052 69.91071428571435, 44.99666510470419 70.71428571428578, 45.13244929871057 71.51785714285721, 45.30429789352394 72.32142857142864, 44.12392947196411 73.12500000000007, 44.150958303879854 73.9285714285715, 39.178710434446636 74.73214285714293, 40.15515150672073 75.53571428571436, 39.67048988420985 76.3392857142858, 38.71641192516403 77.14285714285722, 38.651891027090045 77.94642857142865, 37.50291272521498 78.75000000000009, 37.71227017285551 79.55357142857152, 38.03363972814976 80.35714285714295, 38.07839270338747 81.16071428571438, 37.42620458739903 81.96428571428581, 37.25264094014463 82.76785714285724, 35.039546248564015 83.57142857142867, 36.106390132521156 84.3750000000001, 36.206571896921815 85.17857142857153, 36.63108284433474 85.98214285714296, 36.708200371462354 86.78571428571439, 35.859254091048776 87.58928571428582, 37.07822156713698 88.39285714285725, 36.7167538382461 89.19642857142868, 37.3196084753826 90.00000000000011, 36.819162877541785 90.80357142857154, 37.87795898964601 91.60714285714297, 37.69267225999876 92.4107142857144, 37.655625941235286 93.21428571428584, 38.50858006120697 94.01785714285727, 39.153384042262815 94.8214285714287, 38.5735216141695 95.62500000000013, 37.728940832405684 96.42857142857156, 37.27364380932646 97.23214285714299, 38.01309471293276 98.03571428571442, 37.759019885250595 98.83928571428585, 37.534221421070455 99.64285714285728, 36.87140607290165 100.44642857142871, 37.61704343256341 101.25000000000014, 36.542770126751215 102.05357142857157, 36.58854601113246 102.857142857143, 36.29584243040288 103.66071428571443, 35.70782953386286 104.46428571428586, 34.33628369965989 105.2678571428573, 15.454928941191303 106.07142857142873, 15.737975851067715 106.87500000000016, 15.05834112067887 107.67857142857159, 13.814997530207007 108.48214285714302, 15.72359758319957 109.28571428571445, 15.654606996375206 110.08928571428588, 15.935898055716919 110.89285714285731, 17.811657498673334 111.69642857142874, 16.473636558219248 112.50000000000017, 17.45764521132244 113.3035714285716, 15.343072520580602 114.10714285714303, 15.573244469928364 114.91071428571446, 16.317681037818158 115.7142857142859, 14.290591963425857 116.51785714285732, 15.427383102239666 117.32142857142875, 14.602278665935891 118.12500000000018, 14.812945977664185 118.92857142857162, 2.5856276984366158 119.73214285714305, 0 120.53571428571448, 3.8315303505003686 121.33928571428591, 2.556758909611237 122.14285714285734, 5.488221806239154 122.94642857142877, 5.785974393177209 123.7500000000002, 4.292895571714441 124.55357142857163, 4.313101459443356 125.35714285714306, 3.989622525487853 126.16071428571449, 4.784690028371006 126.96428571428592, 5.083306805163582 127.76785714285735, 5.02735888465654 128.57142857142878, 5.5322887650040675 129.3750000000002, 6.498464712994551 130.17857142857162, 5.763807007767829 130.98214285714303, 8.877869498967955 131.78571428571445, 8.268066805894122 132.58928571428586, 8.209015804210384 133.39285714285728, 6.328614233192 134.1964285714287, 3.481220366370969 135.0000000000001" stroke="#57bd0f" stroke-width="1.25" stroke-opacity="1" fill="none" fill-opacity="0"></polyline></svg>