<svg xmlns="http://www.w3.org/2000/svg" version="1.1" width="135" height="50" viewBox="0 0 135 50" shape-rendering="geometricPrecision"><polyline points="0, 49.046342800434076 0.7988165680473372, 48.681976555713106 1.5976331360946745, 48.943657947795934 2.396449704142012, 49.16989071067883 3.195266272189349, 49.446544636401576 3.994082840236686, 49.39467935455681 4.792899408284024, 49.417637630417545 5.591715976331361, 49.17810179681229 6.390532544378699, 49.389162299702434 7.1893491124260365, 50 7.988165680473374, 49.76107451431057 8.786982248520712, 49.489037765416256 9.58579881656805, 49.73300069257113 10.384615384615387, 49.97435642577221 11.183431952662724, 49.939447800729376 11.982248520710062, 49.47091987608606 12.7810650887574, 49.439245441961575 13.579881656804737, 49.31440920302846 14.378698224852075, 49.33660634501018 15.177514792899412, 49.31598824575275 15.97633136094675, 49.141734036375354 16.775147928994087, 47.72535363529142 17.573964497041423, 47.29904627656835 18.37278106508876, 47.5024701197392 19.171597633136095, 47.30502339144771 19.97041420118343, 47.26597164176026 20.769230769230766, 47.84790054795632 21.568047337278102, 47.40754538565067 22.366863905325438, 47.101968995166736 23.165680473372774, 47.617277422387154 23.96449704142011, 47.47776341904522 24.763313609467446, 46.30361236333272 25.56213017751478, 46.62923468510669 26.360946745562117, 45.81009354452611 27.159763313609453, 46.30528120778049 27.95857988165679, 46.710252922617286 28.757396449704125, 46.47849695850109 29.55621301775146, 46.21044600266286 30.355029585798796, 46.55327297356665 31.153846153846132, 46.95668428433088 31.952662721893468, 47.21064457252934 32.751479289940804, 47.34831251339465 33.55029585798814, 48.13092055951446 34.349112426035475, 47.70576237214598 35.14792899408281, 47.6848518196313 35.94674556213015, 47.41767461715754 36.74556213017748, 47.34981964854501 37.54437869822482, 48.42403243869183 38.343195266272154, 48.60570000801469 39.14201183431949, 48.37744398848563 39.940828402366826, 48.50172591751794 40.73964497041416, 48.31585922462779 41.5384615384615, 48.58205877680616 42.33727810650883, 47.556659972091204 43.13609467455617, 47.46215844828274 43.934911242603505, 46.974506811723984 44.73372781065084, 46.92856346705964 45.53254437869818, 46.73746664573212 46.33136094674551, 46.62237163776682 47.13017751479285, 44.50552667347205 47.928994082840184, 42.960047358862695 48.72781065088752, 43.30758394562507 49.526627218934856, 43.77824137200664 50.32544378698219, 43.46936031015151 51.12426035502953, 43.20124106614907 51.92307692307686, 43.315373274073266 52.7218934911242, 42.904620492334494 53.520710059171535, 43.331311941387455 54.31952662721887, 43.37289382774341 55.118343195266206, 43.117341053706625 55.91715976331354, 42.91938014923165 56.71597633136088, 44.46709250887456 57.514792899408214, 44.3066764761613 58.31360946745555, 43.84156230692999 59.112426035502885, 44.57036971590548 59.91124260355022, 44.35116586155941 60.71005917159756, 43.93893203664696 61.50887573964489, 44.06240509536465 62.30769230769223, 43.58007250904638 63.106508875739564, 43.99425436769718 63.9053254437869, 47.02783299241074 64.70414201183424, 45.903599277343396 65.50295857988158, 46.005961786740244 66.30177514792892, 45.96284874311098 67.10059171597626, 46.063657713206766 67.89940828402361, 45.53147336594211 68.69822485207095, 44.88065383025052 69.4970414201183, 44.99666510470419 70.29585798816564, 45.13244929871057 71.09467455621298, 45.30429789352394 71.89349112426032, 44.12392947196411 72.69230769230766, 44.150958303879854 73.49112426035501, 39.178710434446636 74.28994082840235, 40.15515150672073 75.0887573964497, 39.67048988420985 75.88757396449704, 38.71641192516403 76.68639053254438, 38.651891027090045 77.48520710059172, 37.50291272521498 78.28402366863907, 37.71227017285551 79.08284023668641, 38.03363972814976 79.88165680473375, 38.07839270338747 80.6804733727811, 37.42620458739903 81.47928994082844, 37.25264094014463 82.27810650887578, 35.039546248564015 83.07692307692312, 36.106390132521156 83.87573964497047, 36.206571896921815 84.67455621301781, 36.63108284433474 85.47337278106515, 36.708200371462354 86.2721893491125, 35.859254091048776 87.07100591715984, 37.07822156713698 87.86982248520718, 36.7167538382461 88.66863905325452, 37.3196084753826 89.46745562130187, 36.819162877541785 90.26627218934921, 37.87795898964601 91.06508875739655, 37.69267225999876 91.8639053254439, 37.655625941235286 92.66272189349124, 38.50858006120697 93.46153846153858, 39.153384042262815 94.26035502958592, 38.5735216141695 95.05917159763327, 37.728940832405684 95.85798816568061, 37.27364380932646 96.65680473372795, 38.01309471293276 97.4556213017753, 37.759019885250595 98.25443786982264, 37.534221421070455 99.05325443786998, 36.87140607290165 99.85207100591732, 37.61704343256341 100.65088757396467, 36.542770126751215 101.44970414201201, 36.58854601113246 102.24852071005935, 36.29584243040288 103.0473372781067, 35.70782953386286 103.84615384615404, 34.33628369965989 104.64497041420138, 15.454928941191303 105.44378698224872, 15.737975851067715 106.24260355029607, 15.05834112067887 107.04142011834341, 13.814997530207007 107.84023668639075, 15.72359758319957 108.6390532544381, 15.654606996375206 109.43786982248544, 15.935898055716919 110.23668639053278, 17.811657498673334 111.03550295858012, 16.473636558219248 111.83431952662747, 17.45764521132244 112.63313609467481, 15.343072520580602 113.43195266272215, 15.573244469928364 114.2307692307695, 16.317681037818158 115.02958579881684, 14.290591963425857 115.82840236686418, 15.427383102239666 116.62721893491153, 14.602278665935891 117.42603550295887, 14.812945977664185 118.22485207100621, 2.5856276984366158 119.02366863905355, 0 119.8224852071009, 3.8315303505003686 120.62130177514824, 2.556758909611237 121.42011834319558, 5.488221806239154 122.21893491124293, 5.785974393177209 123.01775147929027, 4.292895571714441 123.81656804733761, 4.313101459443356 124.61538461538495, 3.989622525487853 125.4142011834323, 4.784690028371006 126.21301775147964, 5.083306805163582 127.01183431952698, 5.02735888465654 127.81065088757433, 5.5322887650040675 128.60946745562165, 6.498464712994551 129.40828402366898, 5.763807007767829 130.2071005917163, 8.877869498967955 131.00591715976364, 8.268066805894122 131.80473372781097, 8.209015804210384 132.6035502958583, 6.328614233192 133.40236686390563, 3.481220366370969" fill="none" fill-opacity="0" stroke="#57bd0f" stroke-opacity="1" stroke-width="1.25"></polyline></svg>