<svg xmlns="http://www.w3.org/2000/svg" version="1.1" width="250" height="100" viewBox="0 0 250 100" shape-rendering="auto"><polyline points="0, 26.26852174729225 1.4792899408284024, 61.08559221888176 2.9585798816568047, 85.03843533238759 4.437869822485207, 61.52960939235583 5.9171597633136095, 52.06929867732938 7.396449704142012, 71.12291418690948 8.875739644970414, 78.32668693610742 10.355029585798817, 83.46516425790787 11.834319526627219, 81.15252099008484 13.31360946745562, 83.63392827495505 14.792899408284022, 89.78217048230395 16.272189349112423, 67.61049351039624 17.751479289940825, 73.58814245364952 19.230769230769226, 67.43473487058982 20.710059171597628, 80.00655559404917 22.18934911242603, 64.05320592889107 23.66863905325443, 61.73858918095123 25.147928994082832, 67.59706667211519 26.627218934911234, 74.95280437360692 28.106508875739635, 74.48614554311622 29.585798816568037, 81.52307520085091 31.06508875739644, 0 32.54437869822484, 71.45258014841579 34.02366863905324, 69.54960531411423 35.50295857988164, 79.42274104938541 36.982248520710044, 79.48087311230702 38.461538461538446, 77.08629659762084 39.94082840236685, 63.695403660051866 41.42011834319525, 51.16776310558671 42.89940828402365, 60.448607138231395 44.37869822485205, 69.00577876366411 45.85798816568045, 65.67446135343332 47.337278106508855, 79.85659954260275 48.816568047337256, 99.53574071183897 50.29585798816566, 55.81956853839777 51.77514792899406, 64.21139133537557 53.25443786982246, 65.82992006182845 54.73372781065086, 91.75335811431702 56.21301775147926, 75.59474131209294 57.692307692307665, 85.24465782732678 59.17159763313607, 67.97925977202057 60.65088757396447, 71.68067209463685 62.13017751479287, 70.50449246811729 63.60946745562127, 53.28977453215713 65.08875739644968, 71.31895079967394 66.56804733727809, 67.4213080396016 68.0473372781065, 59.01936981763644 69.5266272189349, 74.85226889537248 71.00591715976331, 75.55984575442275 72.48520710059172, 78.88262969590572 73.96449704142013, 79.40223500383513 75.44378698224854, 59.84304558085412 76.92307692307695, 45.77612281285541 78.40236686390536, 83.5238039646135 79.88165680473377, 79.07801185965447 81.36094674556217, 69.96911179702991 82.84023668639058, 63.45294823032841 84.31952662721899, 65.48400169133879 85.7988165680474, 61.1413618325428 87.27810650887581, 65.3269864928467 88.75739644970422, 98.3636591052547 90.23668639053263, 92.72167543695791 91.71597633136103, 79.37693000540341 93.19526627218944, 76.23383870697957 94.67455621301785, 65.04934078383219 96.15384615384626, 72.43119139657823 97.63313609467467, 69.90021661463044 99.11242603550308, 82.36590074500562 100.59171597633149, 67.81502194370401 102.0710059171599, 63.914660056923445 103.5502958579883, 76.83252907932489 105.02958579881671, 67.90073853095087 106.50887573964512, 48.6031495666816 107.98816568047353, 55.45791133494917 109.46745562130194, 47.510414343962125 110.94674556213035, 74.8981328021593 112.42603550295875, 78.01041168839511 113.90532544378716, 59.03579109350544 115.38461538461557, 72.98543520268512 116.86390532544398, 72.25437898148222 118.34319526627239, 62.01854094427489 119.8224852071008, 74.34629919982709 121.3017751479292, 94.61235958745253 122.78106508875761, 68.20794536325057 124.26035502958602, 71.88320359687492 125.73964497041443, 59.03995874005812 127.21893491124284, 66.51599737768201 128.69822485207123, 70.96602218869292 130.17751479289964, 64.34532195117178 131.65680473372805, 74.08064718611236 133.13609467455646, 62.059591972071395 134.61538461538487, 68.9577756139393 136.09467455621328, 58.4368689917945 137.5739644970417, 48.82718811079527 139.0532544378701, 67.9609250233782 140.5325443786985, 64.77603151216977 142.0118343195269, 48.61648519651704 143.49112426035532, 25.926980482089867 144.97041420118373, 59.15159947618754 146.44970414201214, 62.72770875328574 147.92899408284055, 100 149.40828402366895, 51.33303611320238 150.88757396449736, 59.02721214768304 152.36686390532577, 49.71311257681389 153.84615384615418, 54.42373193057533 155.3254437869826, 37.997777243608446 156.804733727811, 56.28960173237837 158.2840236686394, 64.79812059610246 159.76331360946782, 65.93005141604438 161.24260355029622, 71.48372681415007 162.72189349112463, 79.7258761121748 164.20118343195304, 76.25894490730735 165.68047337278145, 69.52943283017973 167.15976331360986, 47.83355325516574 168.63905325443827, 66.34105999245654 170.11834319526668, 80.8677365670792 171.59763313609508, 98.10626943258431 173.0769230769235, 49.3274637473664 174.5562130177519, 52.08933202184328 176.0355029585803, 52.422572525577216 177.51479289940872, 69.79798130887524 178.99408284023713, 76.6297689275787 180.47337278106554, 66.6385403225467 181.95266272189394, 62.12799227840065 183.43195266272235, 63.66705635599946 184.91124260355076, 51.803323673378166 186.39053254437917, 78.39451828761524 187.86982248520758, 44.46558118413104 189.349112426036, 69.62934204168526 190.8284023668644, 67.46298747611507 192.3076923076928, 67.85921032967704 193.7869822485212, 38.0887862008701 195.26627218934962, 41.574973048133835 196.74556213017803, 73.70610365126535 198.22485207100644, 51.44111027994162 199.70414201183485, 70.30947050296622 201.18343195266326, 70.34343745317932 202.66272189349166, 75.6043237802009 204.14201183432007, 57.35730572548622 205.62130177514848, 57.35730572548622 207.1005917159769, 61.34205268850672 208.5798816568053, 86.42184422756127 210.0591715976337, 69.34804352835586 211.53846153846212, 72.88749214225606 213.01775147929052, 73.30138299911165 214.49704142011893, 92.45264450745296 215.97633136094734, 92.45264450745296 217.45562130177575, 85.93479523503088 218.93491124260416, 58.74876749558931 220.41420118343257, 11.894260361879127 221.89349112426098, 49.09917487720896 223.37278106508938, 71.24942289709297 224.8520710059178, 99.71240837480491 226.3313609467462, 83.8804275086726 227.8106508875746, 90.78628774565244 229.28994082840302, 89.88412273971572 230.76923076923143, 86.63703088181153 232.24852071005984, 62.73638857578451 233.72781065088824, 73.9890913755375 235.20710059171665, 66.04062956682341 236.68639053254506, 57.58506446942546 238.16568047337347, 53.244986867193376 239.64497041420188, 91.16753943008932 241.1242603550303, 84.2358933559006 242.6035502958587, 54.79972741595597 244.0828402366871, 63.94912411837615 245.5621301775155, 72.95500369400514 247.04142011834392, 99.93940201838741" fill="grey" fill-opacity="1" stroke="aliceblue" stroke-opacity="1" stroke-width="1.25"></polyline></svg>